/* XPM */
static char * background_xpm[] = {
"66 64 6 1",
" 	c None",
".	c #000000",
"+	c #202020",
"@	c #C7C7C7",
"#	c #004941",
"$	c #007D71",
"                                                                  ",
"                                                                  ",
"  ............................................................    ",
"  .++++++++++++++++++++++++++++++++++++++++++++++++++++++++++@    ",
"  .+###+++###+++###+++###+++###+++###+++###+++###+++###++++++@    ",
"  .#+++#+#+++#+#+++#+#+++#+#+++#+#+++#+#+++#+#+++#+#+++#+++++@    ",
"  .#+++#+#+++#+#+++#+#+++#+#+++#+#+++#+#+++#+#+++#+#+++#+++++@    ",
"  .+###+++###+++###+++###+++###+++###+++###+++###+++###++++++@    ",
"  .#+++#+#+++#+#+++#+#+++#+#+++#+#+++#+#+++#+#+++#+#+++#+++++@    ",
"  .#+++#+#+++#+#+++#+#+++#+#+++#+#+++#+#+++#+#+++#+#+++#+++++@    ",
"  .+###+++###+++###+++###+++###+++###+++###+++###+++###++++++@    ",
"  .++++++++++++++++++++++++++++++++++++++++++++++++++++++++++@    ",
"  .+###+++###+++###+++###+++###+++###+++###+++###+++###++++++@    ",
"  .#+++#+#+++#+#+++#+#+++#+#+++#+#+++#+#+++#+#+++#+#+++#+++++@    ",
"  .#+++#+#+++#+#+++#+#+++#+#+++#+#+++#+#+++#+#+++#+#+++#+++++@    ",
"  .+###+++###+++###+++###+++###+++###+++###+++###+++###++++++@    ",
"  .#+++#+#+++#+#+++#+#+++#+#+++#+#+++#+#+++#+#+++#+#+++#+++++@    ",
"  .#+++#+#+++#+#+++#+#+++#+#+++#+#+++#+#+++#+#+++#+#+++#+++++@    ",
"  .+###+++###+++###+++###+++###+++###+++###+++###+++###++++++@    ",
"  .++++++++++++++++++++++++++++++++++++++++++++++++++++++++++@    ",
"  .++++++++++++++++++++++++++++++++++++++++++++++++++++++++++@    ",
"  @@@@@@@@@@@@@@@@@@@@@@@@@@@@@@@@@@@@@@@@@@@@@@@@@@@@@@@@@@@@    ",
"                                                                  ",
"                                                                  ",
"  ............................................................    ",
"  .++++++++++++++++++++++++++++++++++++++++++++++++++++++++++@  +$",
"  .++++++++++++++++++++++++++++++++++++++++++++++++++++++++++@  +$",
"  .++++++++++++++++++++++++++++++++++++++++++++++++++++++++++@  +$",
"  .++++++++++++++++++++++++++++++++++++++++++++++++++++++++++@  +$",
"  .++++++++++++++++++++++++++++++++++++++++++++++++++++++++++@  +$",
"  .++++++++++++++++++++++++++++++++++++++++++++++++++++++++++@  +$",
"  .++++++++++++++++++++++++++++++++++++++++++++++++++++++++++@  +$",
"  .++++++++++++++++++++++++++++++++++++++++++++++++++++++++++@  +$",
"  .++++++++++++++++++++++++++++++++++++++++++++++++++++++++++@  +$",
"  .++++++++++++++++++++++++++++++++++++++++++++++++++++++++++@  +$",
"  .++++++++++++++++++++++++++++++++++++++++++++++++++++++++++@  +$",
"  .++++++++++++++++++++++++++++++++++++++++++++++++++++++++++@  +$",
"  .++++++++++++++++++++++++++++++++++++++++++++++++++++++++++@  +$",
"  .++++++++++++++++++++++++++++++++++++++++++++++++++++++++++@  +$",
"  .++++++++++++++++++++++++++++++++++++++++++++++++++++++++++@  +$",
"  .++++++++++++++++++++++++++++++++++++++++++++++++++++++++++@  +$",
"  .++++++++++++++++++++++++++++++++++++++++++++++++++++++++++@  +$",
"  .++++++++++++++++++++++++++++++++++++++++++++++++++++++++++@  +$",
"  .++++++++++++++++++++++++++++++++++++++++++++++++++++++++++@  +$",
"  .++++++++++++++++++++++++++++++++++++++++++++++++++++++++++@  +$",
"  .++++++++++++++++++++++++++++++++++++++++++++++++++++++++++@  +$",
"  .++++++++++++++++++++++++++++++++++++++++++++++++++++++++++@  +$",
"  .++++++++++++++++++++++++++++++++++++++++++++++++++++++++++@  +$",
"  .++++++++++++++++++++++++++++++++++++++++++++++++++++++++++@  +$",
"  .++++++++++++++++++++++++++++++++++++++++++++++++++++++++++@  +$",
"  .++++++++++++++++++++++++++++++++++++++++++++++++++++++++++@  +$",
"  .++++++++++++++++++++++++++++++++++++++++++++++++++++++++++@  +$",
"  .++++++++++++++++++++++++++++++++++++++++++++++++++++++++++@  +$",
"  .++++++++++++++++++++++++++++++++++++++++++++++++++++++++++@  +$",
"  .++++++++++++++++++++++++++++++++++++++++++++++++++++++++++@  +$",
"  .++++++++++++++++++++++++++++++++++++++++++++++++++++++++++@  +$",
"  .++++++++++++++++++++++++++++++++++++++++++++++++++++++++++@  +$",
"  .++++++++++++++++++++++++++++++++++++++++++++++++++++++++++@  +$",
"  .++++++++++++++++++++++++++++++++++++++++++++++++++++++++++@  +$",
"  .++++++++++++++++++++++++++++++++++++++++++++++++++++++++++@  +$",
"  .++++++++++++++++++++++++++++++++++++++++++++++++++++++++++@  +$",
"  @@@@@@@@@@@@@@@@@@@@@@@@@@@@@@@@@@@@@@@@@@@@@@@@@@@@@@@@@@@@    ",
"                                                                  ",
"                                                                  "};
