/* XPM */
static char *_x8_lcd[] = {
/* columns rows colors chars-per-pixel */
"192 48 10 1 ",
"  c #202020",
". c #440000",
"X c #542A00",
"o c #004941",
"O c #920000",
"+ c #E00000",
"@ c #A85500",
"# c #FF8200",
"$ c #188A86",
"% c #20B2AE",
/* pixels */
" ooo   o$o   %o%   %o%   o%o  $ooo$  %%o   oo%   oo%   %oo   ooo   ooo   ooo   ooo   ooo   ooo$  %%%   ooo$ $%%%$ $%%%$ %ooo% $%%%$ $%%%$ $%%%$ $%%%$ $%%%$  ooo   ooo   oo%$  ooo  $%oo  $%%%$ ",
"o   o o % o o% %o o$ $o o$$$% %   % %  $o o  $o o $ o o $ o %   % o $ o o   o o   o o   o o   % %   % o   % o   % o   % %   % %   o %   o o   % %   % %   % o   o o   o o $ o o   o o $ o %   % ",
"o   o o % o o$ $o %$$$% %   o o  $o o$$ o o $ o o$  o o  $o o$ $o o $ o o   o o   o o   o o  $o %   % o   % o   % o   % %   % %   o %   o o   % %   % %   % o $ o o $ o o$  o %$$$% o  $o o   % ",
" ooo   o$o   ooo   %o%   %%%   o%o   %oo   ooo   %oo   oo%  $%%%$ $%%%$  ooo  $%%%$  ooo   o%o  $ooo$  ooo$ $%%%$  %%%$ $%%%$ %%%%$ $%%%$  ooo$ $%%%$ $%%%$  ooo   ooo  $ooo   ooo   ooo$  oo%$ ",
"o   o o % o o   o %$$$% o   % o$  o % $ % o   o o$  o o  $o o$ $o o $ o o   o o   o o   o o$  o %   % o   % %   o o   % o   % o   % %   % o   % %   % o   % o   o o   o o$  o %$$$% o  $o o $ o ",
"o   o o   o o   o o$ $o %$$$o %   % %  $o o   o o $ o o $ o %   % o $ o o $ o o   o o $$o %   o %   % o   % %   o o   % o   % o   % %   % o   % %   % o   % o $ o o $ o o $ o o   o o $ o o   o ",
" ooo   o%o   ooo   %o%   o%o  $ooo$  %%o$  ooo   oo%   %oo   ooo   ooo   o%o   ooo   o%%  $ooo   %%%   ooo$ $%%%$ $%%%$  ooo$ $%%%$ $%%%$  ooo% $%%%$ $%%%$  ooo   o%o   oo%$  ooo  $%oo   o%o  ",
"                                                                         $                                                                                         $                            ",
" %%%   %%%  $%%%   %%%  $%%%  $%%%$ $%%%$  %%%$ $ooo$  o$o  $%%%$ $ooo$ $ooo   %$%  $%%%   %%%  $%%%   %%%  $%%%   %%%  $%$%$ $ooo$ $ooo$ $ooo$ $ooo$ $ooo$ $%%%$ $%%o   o%o   o%%$  o%o   ooo  ",
"%   % %   % %   % %   o %   % %   o %   o %   o %   % o % o o   % %   % %   o % % % %   % %   % %   % %   % %   % %   $ o % o %   % %   % %   % %   % %   % o   % %   o o% %o o   % o$ $o o   o ",
"% $$% %   % %   % %   o %   % %   o %   o %   o %   % o % o o   % %   % %   o % % % %   % %   % %   % %   % %   % %   o o % o %   % %   % %   % $% %$ %$ $% o  %$ %   o o % o o   % %   % o   o ",
"$o%o$ $%%%$ $%%%  $ooo  $ooo$ $%%%$ $%%%  $oo%% $%%%$  o$o   ooo$ $%%%  $ooo  $o$o$ $ooo$ $ooo$ $%%%  $ooo$ $%%%   %%%   o$o  $ooo$ $ooo$ $o$o$ o%%%o o%o%o  o%o  $ooo   ooo   ooo$  ooo   ooo  ",
"% $$% %   % %   % %   o %   % %   o %   o %   % %   % o % o o   % %   % %   o % % % %   % %   % %   o % % % %   % o   % o % o %   % %   % % % % $% %$ o % o $%  o %   o o   o o   % o   o o   o ",
"%     %   % %   % %   o %   % %   o %   o %   % %   % o % o %   % %   % %   o % % % %   % %   % %   o %  %% %   % $   % o % o %   % $% %$ % % % %   % o % o %   o %   o o   o o   % o   o o   o ",
" %%%  $ooo$ $%%%   %%%  $%%%  $%%%$ $ooo   %%%  $ooo$  o$o   %%%  $ooo$ $%%%$ $o o$ $ooo$  %%%  $ooo   %%%$ $ooo$  %%%   o%o   %%%   $%$  $%$%$ $ooo$  o$o  $%%%$ $%%o   ooo   o%%$  ooo   ooo  ",
"                                                                                                                                                                                                ",
" XXX   X@X   #X#   #X#   X#X  @XXX@  ##X   XX#   XX#   #XX   XXX   XXX   XXX   XXX   XXX   XXX@  ###   XXX@ @###@ @###@ #XXX# @###@ @###@ @###@ @###@ @###@  XXX   XXX   XX#@  XXX  @#XX  @###@ ",
"X   X X # X X# #X X@ @X X@@@# #   # #  @X X  @X X @ X X @ X #   # X @ X X   X X   X X   X X   # #   # X   # X   # X   # #   # #   X #   X X   # #   # #   # X   X X   X X @ X X   X X @ X #   # ",
"X   X X # X X@ @X #@@@# #   X X  @X X@@ X X @ X X@  X X  @X X@ @X X @ X X   X X   X X   X X  @X #   # X   # X   # X   # #   # #   X #   X X   # #   # #   # X @ X X @ X X@  X #@@@# X  @X X   # ",
" XXX   X@X   XXX   #X#   ###   X#X   #XX   XXX   #XX   XX#  @###@ @###@  XXX  @###@  XXX   X#X  @XXX@  XXX@ @###@  ###@ @###@ ####@ @###@  XXX@ @###@ @###@  XXX   XXX  @XXX   XXX   XXX@  XX#@ ",
"X   X X # X X   X #@@@# X   # X@  X # @ # X   X X@  X X  @X X@ @X X @ X X   X X   X X   X X@  X #   # X   # #   X X   # X   # X   # #   # X   # #   # X   # X   X X   X X@  X #@@@# X  @X X @ X ",
"X   X X   X X   X X@ @X #@@@X #   # #  @X X   X X @ X X @ X #   # X @ X X @ X X   X X @@X #   X #   # X   # #   X X   # X   # X   # #   # X   # #   # X   # X @ X X @ X X @ X X   X X @ X X   X ",
" XXX   X#X   XXX   #X#   X#X  @XXX@  ##X@  XXX   XX#   #XX   XXX   XXX   X#X   XXX   X##  @XXX   ###   XXX@ @###@ @###@  XXX@ @###@ @###@  XXX# @###@ @###@  XXX   X#X   XX#@  XXX  @#XX   X#X  ",
"                                                                         @                                                                                         @                            ",
" ###   ###  @###   ###  @###  @###@ @###@  ###@ @XXX@  X@X  @###@ @XXX@ @XXX   #@#  @###   ###  @###   ###  @###   ###  @#@#@ @XXX@ @XXX@ @XXX@ @XXX@ @XXX@ @###@ @##X   X#X   X##@  X#X   XXX  ",
"#   # #   # #   # #   X #   # #   X #   X #   X #   # X # X X   # #   # #   X # # # #   # #   # #   # #   # #   # #   @ X # X #   # #   # #   # #   # #   # X   # #   X X# #X X   # X@ @X X   X ",
"# @@# #   # #   # #   X #   # #   X #   X #   X #   # X # X X   # #   # #   X # # # #   # #   # #   # #   # #   # #   X X # X #   # #   # #   # @# #@ #@ @# X  #@ #   X X # X X   # #   # X   X ",
"@X#X@ @###@ @###  @XXX  @XXX@ @###@ @###  @XX## @###@  X@X   XXX@ @###  @XXX  @X@X@ @XXX@ @XXX@ @###  @XXX@ @###   ###   X@X  @XXX@ @XXX@ @X@X@ X###X X#X#X  X#X  @XXX   XXX   XXX@  XXX   XXX  ",
"# @@# #   # #   # #   X #   # #   X #   X #   # #   # X # X X   # #   # #   X # # # #   # #   # #   X # # # #   # X   # X # X #   # #   # # # # @# #@ X # X @#  X #   X X   X X   # X   X X   X ",
"#     #   # #   # #   X #   # #   X #   X #   # #   # X # X #   # #   # #   X # # # #   # #   # #   X #  ## #   # @   # X # X #   # @# #@ # # # #   # X # X #   X #   X X   X X   # X   X X   X ",
" ###  @XXX@ @###   ###  @###  @###@ @XXX   ###  @XXX@  X@X   ###  @XXX@ @###@ @X X@ @XXX@  ###  @XXX   ###@ @XXX@  ###   X#X   ###   @#@  @#@#@ @XXX@  X@X  @###@ @##X   XXX   X##@  XXX   XXX  ",
"                                                                                                                                                                                                ",
" ...   .O.   +.+   +.+   .+.  O...O  ++.   ..+   ..+   +..   ...   ...   ...   ...   ...   ...O  +++   ...O O+++O O+++O +...+ O+++O O+++O O+++O O+++O O+++O  ...   ...   ..+O  ...  O+..  O+++O ",
".   . . + . .+ +. .O O. .OOO+ +   + +  O. .  O. . O . . O . +   + . O . .   . .   . .   . .   + +   + .   + .   + .   + +   + +   . +   . .   + +   + +   + .   . .   . . O . .   . . O . +   + ",
".   . . + . .O O. +OOO+ +   . .  O. .OO . . O . .O  . .  O. .O O. . O . .   . .   . .   . .  O. +   + .   + .   + .   + +   + +   . +   . .   + +   + +   + . O . . O . .O  . +OOO+ .  O. .   + ",
" ...   .O.   ...   +.+   +++   .+.   +..   ...   +..   ..+  O+++O O+++O  ...  O+++O  ...   .+.  O...O  ...O O+++O  +++O O+++O ++++O O+++O  ...O O+++O O+++O  ...   ...  O...   ...   ...O  ..+O ",
".   . . + . .   . +OOO+ .   + .O  . + O + .   . .O  . .  O. .O O. . O . .   . .   . .   . .O  . +   + .   + +   . .   + .   + .   + +   + .   + +   + .   + .   . .   . .O  . +OOO+ .  O. . O . ",
".   . .   . .   . .O O. +OOO. +   + +  O. .   . . O . . O . +   + . O . . O . .   . . OO. +   . +   + .   + +   . .   + .   + .   + +   + .   + +   + .   + . O . . O . . O . .   . . O . .   . ",
" ...   .+.   ...   +.+   .+.  O...O  ++.O  ...   ..+   +..   ...   ...   .+.   ...   .++  O...   +++   ...O O+++O O+++O  ...O O+++O O+++O  ...+ O+++O O+++O  ...   .+.   ..+O  ...  O+..   .+.  ",
"                                                                         O                                                                                         O                            ",
" +++   +++  O+++   +++  O+++  O+++O O+++O  +++O O...O  .O.  O+++O O...O O...   +O+  O+++   +++  O+++   +++  O+++   +++  O+O+O O...O O...O O...O O...O O...O O+++O O++.   .+.   .++O  .+.   ...  ",
"+   + +   + +   + +   . +   + +   . +   . +   . +   + . + . .   + +   + +   . + + + +   + +   + +   + +   + +   + +   O . + . +   + +   + +   + +   + +   + .   + +   . .+ +. .   + .O O. .   . ",
"+ OO+ +   + +   + +   . +   + +   . +   . +   . +   + . + . .   + +   + +   . + + + +   + +   + +   + +   + +   + +   . . + . +   + +   + +   + O+ +O +O O+ .  +O +   . . + . .   + +   + .   . ",
"O.+.O O+++O O+++  O...  O...O O+++O O+++  O..++ O+++O  .O.   ...O O+++  O...  O.O.O O...O O...O O+++  O...O O+++   +++   .O.  O...O O...O O.O.O .+++. .+.+.  .+.  O...   ...   ...O  ...   ...  ",
"+ OO+ +   + +   + +   . +   + +   . +   . +   + +   + . + . .   + +   + +   . + + + +   + +   + +   . + + + +   + .   + . + . +   + +   + + + + O+ +O . + . O+  . +   . .   . .   + .   . .   . ",
"+     +   + +   + +   . +   + +   . +   . +   + +   + . + . +   + +   + +   . + + + +   + +   + +   . +  ++ +   + O   + . + . +   + O+ +O + + + +   + . + . +   . +   . .   . .   + .   . .   . ",
" +++  O...O O+++   +++  O+++  O+++O O...   +++  O...O  .O.   +++  O...O O+++O O. .O O...O  +++  O...   +++O O...O  +++   .+.   +++   O+O  O+O+O O...O  .O.  O+++O O++.   ...   .++O  ...   ...  ",
"                                                                                                                                                                                          OOOOO "
};
